<?xml version="1.0" standalone="no"?>
<!DOCTYPE svg PUBLIC "-//W3C//DTD SVG 20010904//EN"
 "http://www.w3.org/TR/2001/REC-SVG-20010904/DTD/svg10.dtd">
<svg version="1.0" xmlns="http://www.w3.org/2000/svg"
 width="541.000000pt" height="611.000000pt" viewBox="0 0 541.000000 611.000000"
 preserveAspectRatio="xMidYMid meet">

<g transform="translate(0.000000,611.000000) scale(0.100000,-0.100000)"
fill="#000000" stroke="none">
<path d="M2539 6080 c-188 -23 -489 -167 -677 -324 -105 -89 -140 -125 -224
-237 -197 -261 -290 -577 -257 -877 28 -262 97 -476 205 -638 79 -119 246
-290 367 -376 153 -109 342 -190 530 -229 131 -27 380 -37 497 -20 179 27 364
93 530 191 106 62 277 211 344 299 99 131 119 159 146 211 15 30 42 82 59 115
118 228 145 624 61 891 -43 134 -136 322 -209 419 -83 110 -228 253 -329 325
-118 84 -303 172 -452 216 -123 36 -128 37 -325 39 -110 2 -230 -1 -266 -5z
m10 -408 c58 -68 132 -144 165 -170 199 -158 265 -199 433 -267 121 -50 193
-70 303 -85 83 -12 322 -15 363 -5 24 6 26 4 33 -32 3 -21 16 -72 28 -113 18
-64 21 -101 21 -260 0 -113 -5 -214 -14 -260 -38 -209 -206 -497 -361 -620
l-40 -32 0 469 0 469 30 11 c32 12 70 66 70 99 0 45 -39 55 -124 29 -100 -30
-180 -16 -280 50 -60 40 -79 40 -97 1 -21 -45 -2 -96 52 -147 l49 -47 0 -489
c0 -270 -3 -517 -6 -550 l-7 -60 -74 -17 c-41 -9 -128 -22 -193 -28 -141 -14
-307 -1 -465 35 l-100 24 -1 556 c0 323 3 557 8 557 18 0 121 106 135 138 11
28 11 36 -2 61 -16 32 -64 71 -87 71 -8 0 -32 -18 -53 -41 -85 -87 -175 -106
-272 -56 -64 33 -74 33 -103 2 -34 -37 -23 -86 34 -144 l45 -46 2 -453 c1
-249 0 -454 -3 -457 -11 -12 -183 181 -243 273 -110 168 -153 308 -162 528 -7
150 8 257 52 389 88 264 195 404 445 584 75 54 279 162 299 158 8 -1 62 -57
120 -125z" />
<path d="M2658 4597 c-66 -25 -125 -66 -173 -119 -61 -68 -95 -122 -95 -150 1
-44 36 -102 74 -123 l36 -20 70 77 c110 120 158 139 245 99 37 -17 66 -44 151
-144 29 -34 34 -36 65 -27 37 10 96 70 105 107 14 52 -136 232 -233 279 -66
33 -185 43 -245 21z" fill="red"/>
<path d="M1364 3802 c-118 -111 -235 -261 -346 -442 -144 -235 -277 -595 -315
-848 -13 -89 -17 -188 -17 -417 l-1 -300 28 -95 c40 -134 117 -279 189 -356
60 -64 166 -148 225 -178 l32 -16 -16 38 c-14 31 -18 107 -25 482 -11 509 -5
853 16 955 43 215 139 337 340 435 149 73 155 74 636 64 434 -9 569 -9 1350
-3 l445 4 67 -26 c203 -79 348 -228 419 -429 23 -65 23 -66 27 -724 3 -686 1
-731 -39 -787 -11 -16 -18 -29 -14 -29 21 0 111 58 175 112 169 145 236 260
305 523 25 98 30 336 10 510 -23 208 -58 395 -95 515 -84 272 -251 592 -425
815 -70 90 -237 255 -258 255 -7 0 -21 -19 -32 -42 -27 -63 -278 -310 -397
-392 -164 -113 -336 -179 -573 -220 -103 -18 -467 -22 -575 -6 -158 23 -390
114 -565 223 -187 116 -385 294 -445 400 -17 31 -35 57 -38 57 -4 0 -44 -35
-88 -78z" fill="red"/>
<path d="M1648 2928 c-63 -11 -157 -61 -209 -111 -58 -55 -114 -166 -135 -267
-14 -65 -15 -149 -10 -645 6 -646 5 -641 88 -764 45 -68 141 -160 189 -184
l30 -14 -38 -6 c-21 -4 -153 -7 -293 -7 -140 0 -261 -4 -269 -9 -12 -8 -12
-21 -3 -78 31 -186 129 -331 271 -400 l56 -28 1395 -2 c858 -1 1416 1 1450 7
97 17 177 66 247 149 34 41 71 98 82 127 20 53 57 221 50 228 -2 2 -132 7
-289 11 -157 4 -293 9 -303 12 -15 4 -7 13 35 41 101 69 185 183 223 303 15
47 18 120 22 579 6 605 0 703 -45 803 -38 83 -125 178 -196 212 -28 13 -82 29
-121 35 -82 12 -2159 19 -2227 8z m2218 -270 c27 -19 62 -54 78 -82 29 -46 31
-55 39 -210 4 -88 7 -357 5 -596 l-3 -435 -28 -57 c-46 -94 -129 -148 -257
-167 -95 -15 -1613 -24 -1792 -11 -111 8 -135 13 -185 39 -75 38 -114 80 -155
166 l-33 70 0 550 c0 423 3 560 13 593 17 56 71 115 135 146 l51 26 1042 0
1042 0 48 -32z m-826 -1842 c0 -12 -9 -40 -20 -64 l-19 -42 -218 2 -217 3 -23
34 c-13 19 -23 46 -23 60 l0 26 260 1 c256 0 260 0 260 -20z m735 -37 c88 -6
237 -15 330 -19 94 -5 171 -9 173 -9 1 -1 -9 -23 -23 -51 -16 -32 -40 -60 -67
-77 l-42 -28 -471 -3 c-260 -2 -494 1 -520 5 l-48 8 41 48 c23 26 49 69 58 96
l18 48 195 -4 c108 -2 268 -9 356 -14z m-1475 -19 c22 -53 68 -108 110 -132
22 -13 40 -26 40 -30 0 -11 -1024 -10 -1052 1 -33 12 -81 64 -111 119 l-26 47
282 2 c229 2 618 14 723 21 15 2 25 -7 34 -28z"/>
<path d="M2663 2083 c-54 -18 -127 -93 -149 -149 -21 -56 -15 -154 14 -211 43
-84 154 -153 246 -153 38 0 120 39 163 77 17 16 45 57 62 93 90 189 -18 361
-224 359 -38 0 -89 -7 -112 -16z" fill="red"/>
<path d="M604 218 c-51 -40 -63 -61 -64 -106 0 -36 5 -49 31 -73 l31 -29 2144
0 c2360 0 2193 -5 2234 62 39 64 16 121 -59 151 -36 15 -253 16 -2164 17
l-2124 0 -29 -22z"/>
</g>
</svg>
