<?xml version="1.0" standalone="no"?>
<!DOCTYPE svg PUBLIC "-//W3C//DTD SVG 20010904//EN"
 "http://www.w3.org/TR/2001/REC-SVG-20010904/DTD/svg10.dtd">
<svg version="1.0" xmlns="http://www.w3.org/2000/svg"
 width="300.000000pt" height="369.000000pt" viewBox="0 0 300.000000 369.000000"
 preserveAspectRatio="xMidYMid meet">
<metadata>
Created by potrace 1.10, written by Peter Selinger 2001-2011
</metadata>
<g transform="translate(0.000000,369.000000) scale(0.100000,-0.100000)"
fill="#000000" stroke="none">
<path d="M91 3593 c-32 -30 -47 -87 -31 -113 7 -11 10 -5 10 21 0 67 62 113
119 89 34 -14 56 -57 32 -63 -15 -4 -15 -5 0 -6 27 -2 31 -43 7 -76 l-21 -30
27 25 c15 14 31 24 34 22 4 -1 8 6 10 17 4 23 38 25 47 3 6 -17 -3 -34 -15
-27 -5 3 -11 1 -15 -5 -4 -6 30 -10 97 -10 128 0 148 5 148 36 0 13 5 24 10
24 6 0 10 -7 10 -16 0 -8 5 -12 10 -9 6 4 8 11 5 16 -4 5 -2 9 3 9 17 0 22
-13 9 -28 -10 -13 -9 -15 5 -9 11 4 18 0 20 -11 3 -15 12 -16 68 -11 47 4 54
6 24 7 -22 1 -46 8 -53 15 -11 10 -13 10 -7 0 4 -8 1 -13 -8 -13 -10 0 -15 7
-13 20 5 29 14 35 34 19 14 -12 15 -12 9 0 -6 9 -5 12 5 9 8 -3 13 -11 11 -17
-1 -7 2 -10 8 -6 6 3 8 11 5 16 -4 5 -2 9 3 9 17 0 22 -13 9 -29 -11 -14 -10
-14 5 -2 10 7 15 17 12 22 -9 15 8 10 28 -8 11 -10 18 -13 16 -8 -2 6 2 10 7
10 6 0 9 -4 7 -9 -6 -19 11 -44 35 -50 32 -9 65 19 61 50 -1 12 4 33 11 48 13
24 13 29 -5 47 -16 16 -37 20 -119 24 -140 6 -148 6 -157 -3 -5 -5 -39 -4 -76
1 -37 5 -83 8 -102 7 -53 -4 -82 -3 -108 3 -17 4 -30 -1 -46 -17 l-23 -22 -26
28 c-37 39 -95 39 -136 1z m239 -23 c0 -5 -8 -7 -17 -3 -16 5 -15 4 1 -9 10
-8 16 -20 12 -26 -13 -22 -34 -12 -38 18 -4 26 -1 30 19 30 13 0 23 -4 23 -10z
m90 -19 c0 -26 -3 -28 -40 -28 -37 0 -40 2 -39 26 0 23 1 24 9 6 7 -17 9 -17
9 -3 1 11 6 15 15 12 8 -3 17 -1 21 5 12 20 25 11 25 -18z m78 17 c7 -7 11
-21 11 -32 -1 -17 -2 -18 -6 -3 -2 9 -9 17 -14 17 -5 0 -10 -8 -10 -17 -1 -10
-5 -4 -9 12 l-8 30 -1 -27 c-1 -30 -18 -38 -27 -13 -13 33 38 59 64 33z m150
5 c-19 -5 -25 -33 -7 -33 5 0 7 5 4 10 -3 6 -1 10 4 10 6 0 11 -9 11 -20 0
-23 -22 -26 -40 -5 -17 21 -5 45 22 44 17 -1 18 -2 6 -6z m148 -3 c16 0 19
-36 4 -45 -6 -3 -14 4 -19 17 -9 21 -10 21 -10 2 -1 -17 -7 -20 -48 -19 -42 0
-48 3 -51 23 -2 15 2 22 12 22 10 0 16 -9 17 -22 1 -22 1 -22 9 2 7 21 8 22
10 5 1 -15 3 -16 7 -5 8 20 25 31 41 25 8 -3 20 -5 28 -5z m-248 -28 c2 -15
-2 -22 -12 -22 -11 0 -16 9 -16 26 0 31 23 28 28 -4z m40 0 c2 -15 -2 -22 -12
-22 -11 0 -16 9 -16 26 0 31 23 28 28 -4z m281 1 c0 -25 -1 -26 -9 -8 -9 20
-9 20 -10 0 -2 -17 -3 -16 -10 5 -8 24 -8 24 -9 3 -1 -13 -5 -23 -10 -23 -4 0
-6 11 -3 25 3 18 11 25 28 25 20 0 24 -5 23 -27z m-372 -55 c17 3 20 -1 16
-17 -4 -17 -13 -19 -61 -18 -32 1 -63 6 -69 10 -8 5 -13 3 -13 -5 0 -9 -3 -9
-10 2 -6 10 -10 11 -10 3 0 -7 -4 -13 -8 -13 -4 0 -8 9 -8 20 0 16 6 19 36 16
19 -1 46 0 60 4 14 4 30 5 35 1 6 -3 20 -4 32 -3z m353 -3 c17 -20 5 -45 -20
-45 -23 0 -35 22 -26 45 7 19 30 19 46 0z"/>
<path d="M149 3551 c14 -4 26 -13 29 -21 3 -12 2 -12 -6 -1 -7 9 -12 10 -16 2
-10 -16 -46 -13 -46 4 0 8 -6 12 -14 9 -7 -3 -13 -18 -12 -34 1 -25 5 -30 28
-30 20 0 28 -7 37 -30 12 -36 36 -41 27 -6 -6 23 14 43 37 37 5 -1 6 3 2 9 -3
6 -10 8 -15 5 -12 -8 -20 21 -8 33 17 17 -1 32 -35 31 -29 -1 -30 -2 -8 -8z"/>
<path d="M2835 3530 c-13 -20 17 -41 54 -38 28 2 36 7 36 23 0 16 -8 21 -42
23 -22 2 -44 -2 -48 -8z m85 -16 c0 -8 -13 -12 -37 -10 -51 3 -54 23 -3 23 26
0 40 -5 40 -13z"/>
<path d="M84 3356 c-19 -14 -19 -43 -22 -1545 l-2 -1531 122 0 c88 -1 130 -5
148 -15 29 -16 118 -19 140 -5 10 7 -7 10 -57 10 -67 0 -73 2 -97 30 -14 17
-28 45 -31 63 -3 18 -4 532 -3 1144 2 740 0 1106 -7 1095 -13 -22 -17 -301
-19 -1352 -1 -595 2 -869 10 -902 6 -26 9 -50 6 -53 -3 -3 -45 -5 -93 -5 -77
0 -90 2 -99 19 -7 14 -10 497 -10 1513 0 1296 2 1497 15 1515 13 19 25 21 129
22 l114 2 -4 -48 c-6 -87 22 -149 58 -127 18 11 38 14 38 5 0 -4 6 -8 13 -8
127 -7 138 -6 168 16 28 21 31 22 43 6 10 -13 33 -19 102 -22 49 -3 98 -5 109
-5 11 1 45 1 76 2 48 0 58 4 69 24 l12 24 24 -26 c20 -24 25 -26 44 -14 17 10
25 11 36 1 17 -14 135 -15 160 -1 11 6 25 5 41 -3 18 -10 31 -10 54 -2 21 8
34 9 47 1 11 -7 37 -9 72 -4 51 7 167 5 217 -4 12 -3 37 0 57 6 19 6 43 7 53
3 10 -5 21 -7 26 -7 4 1 27 3 50 3 55 2 73 12 82 46 14 58 45 71 45 20 0 -23
8 -41 25 -57 20 -19 30 -22 62 -15 70 14 127 5 154 -23 27 -30 74 -28 121 4
32 22 48 26 106 26 38 -1 73 -2 78 -3 5 -1 32 -1 59 0 39 1 53 6 63 21 11 18
9 24 -15 49 -15 16 -30 37 -31 47 -2 11 -10 26 -18 35 -8 8 -14 18 -14 22 0 4
55 8 123 10 67 1 -497 4 -1254 5 -1174 2 -1378 0 -1395 -12z m546 -26 c0 -36
-4 -37 -37 -6 -18 17 -35 23 -54 21 -16 -2 -29 0 -29 5 0 6 27 10 60 10 60 0
60 0 60 -30z m275 22 c-6 -5 -22 -13 -37 -20 -20 -8 -29 -8 -37 2 -16 19 -3
26 43 26 22 0 36 -4 31 -8z m118 -12 c-6 -23 -14 -25 -31 -8 -18 18 -14 28 12
28 19 0 23 -4 19 -20z m601 8 c-3 -5 -20 -8 -37 -8 -120 3 -221 -1 -237 -10
-13 -7 -21 -7 -25 0 -3 5 -21 10 -40 10 -19 0 -37 4 -40 10 -4 6 62 9 189 8
107 0 193 -5 190 -10z m94 -16 c2 -16 10 -22 27 -22 31 0 48 -32 40 -71 -7
-32 -5 -31 -57 -34 l-38 -2 0 79 c0 59 3 79 13 76 6 -3 13 -14 15 -26z m122
20 c0 -18 -45 -30 -63 -17 -26 19 -21 25 23 25 22 0 40 -4 40 -8z m182 1 c4
-2 2 -13 -4 -23 -10 -16 -15 -17 -28 -6 -20 18 -59 26 -66 15 -8 -14 -38 -11
-60 5 -17 13 -10 15 66 14 47 -1 88 -3 92 -5z m283 -8 c-24 -9 -55 -12 -77 -8
-63 9 -43 20 40 21 l77 2 -40 -15z m-1892 -45 c16 -28 30 -50 33 -50 3 0 4 21
3 48 -3 36 0 47 11 47 8 0 15 -6 14 -12 -1 -7 -2 -40 -2 -73 -2 -77 -19 -79
-61 -7 l-31 52 0 -52 c0 -40 -4 -53 -15 -53 -12 0 -15 14 -15 68 0 100 19 110
63 32z m308 0 c17 -27 33 -50 36 -50 3 0 3 21 1 47 -2 31 1 48 10 50 9 4 12
-15 12 -71 0 -94 -16 -100 -60 -23 l-30 52 0 -52 c0 -40 -4 -53 -15 -53 -12 0
-15 14 -15 68 0 100 14 108 61 32z m386 0 c15 -27 30 -50 33 -50 3 0 3 22 2
50 -3 41 -1 50 12 50 13 0 16 -13 16 -75 0 -65 -2 -75 -17 -75 -11 0 -29 20
-46 50 -16 28 -31 50 -33 50 -3 0 -4 -21 -2 -47 2 -30 -1 -48 -9 -50 -10 -4
-13 15 -13 71 0 93 15 100 57 26z m1023 40 c14 -7 18 -22 18 -62 0 -65 -10
-78 -59 -78 l-39 0 0 75 0 75 31 0 c17 0 38 -4 49 -10z m-1176 -15 c3 -8 12
-15 21 -15 8 0 15 -4 15 -10 0 -5 -9 -10 -20 -10 -16 0 -20 -7 -20 -30 0 -23
4 -30 20 -30 11 0 20 -7 20 -16 0 -11 -8 -14 -27 -12 -25 3 -28 8 -31 43 -2
22 -9 44 -15 48 -9 6 -9 10 1 14 6 2 12 11 12 19 0 19 16 18 24 -1z m-124 -50
c0 -38 3 -45 19 -45 16 0 20 8 23 43 4 59 22 48 26 -17 l3 -54 -40 2 c-22 1
-42 4 -44 7 -7 7 -15 98 -9 104 15 14 22 1 22 -40z m448 17 c27 -35 1 -92 -43
-92 -30 0 -45 19 -45 56 0 55 54 77 88 36z m41 6 c5 -13 13 -32 16 -43 7 -17
9 -15 17 15 10 38 24 57 34 48 11 -12 -29 -119 -44 -116 -12 3 -52 88 -52 111
0 16 21 5 29 -15z m307 10 c33 6 44 -10 44 -65 0 -32 -4 -43 -15 -43 -11 0
-15 12 -15 45 0 33 -4 45 -15 45 -11 0 -15 -12 -15 -45 0 -33 -4 -45 -14 -45
-10 0 -16 14 -18 43 -2 29 -8 42 -18 42 -10 0 -16 -13 -18 -42 -2 -29 -8 -43
-18 -43 -10 0 -14 14 -14 53 0 30 2 56 5 59 3 3 23 2 45 -2 22 -4 52 -5 66 -2z
m335 2 c11 7 20 7 24 0 8 -13 -4 -32 -15 -25 -16 10 -32 -24 -25 -55 5 -23 3
-30 -9 -30 -13 0 -16 12 -16 62 0 47 3 59 12 50 7 -7 17 -8 29 -2z m534 -4
c29 -1 30 -2 33 -53 2 -43 0 -53 -12 -53 -12 0 -16 11 -16 46 0 38 -3 45 -17
42 -13 -2 -19 -15 -21 -46 -2 -27 -8 -42 -17 -42 -10 0 -12 14 -10 58 2 31 4
58 4 60 1 2 6 0 13 -4 7 -4 26 -8 43 -8z m125 -11 c0 -8 -10 -11 -27 -8 -27 4
-27 4 -9 -11 11 -9 23 -16 27 -16 15 0 17 -30 3 -45 -21 -20 -64 -20 -64 1 0
11 6 15 20 11 30 -8 35 11 6 25 -32 14 -34 46 -3 57 26 10 47 4 47 -14z
m-2030 -15 c28 -67 -54 -111 -89 -48 -23 40 -3 78 43 78 28 0 36 -5 46 -30z
m898 -2 c3 -25 0 -28 -27 -28 -17 0 -31 -4 -31 -10 0 -5 14 -10 31 -10 37 0
35 -24 -3 -28 -32 -4 -58 21 -58 57 0 36 18 53 55 49 24 -2 31 -8 33 -30z
m402 13 c17 -32 12 -41 -25 -41 -19 0 -35 -4 -35 -10 0 -5 14 -10 30 -10 21 0
30 -5 30 -16 0 -26 -62 -14 -78 16 -21 38 -2 80 37 80 20 0 34 -7 41 -19z
m358 7 c7 -7 12 -20 12 -30 0 -14 -8 -18 -36 -18 -21 0 -33 -4 -29 -10 3 -5
20 -10 36 -10 35 0 36 -23 1 -28 -37 -6 -62 15 -62 51 0 38 15 57 45 57 12 0
26 -5 33 -12z m115 -10 c-8 -33 -23 -48 -45 -48 -11 0 -16 -5 -13 -11 4 -6 13
-8 20 -5 7 2 21 -2 32 -9 26 -19 6 -49 -36 -53 -48 -5 -63 11 -46 52 8 19 10
38 5 46 -16 26 8 50 49 50 36 0 39 -2 34 -22z m47 -34 c0 -73 -24 -70 -28 4
-2 42 0 52 12 52 13 0 16 -12 16 -56z m265 -34 c0 -8 -8 -16 -17 -18 -13 -2
-18 3 -18 18 0 15 5 20 18 18 9 -2 17 -10 17 -18z"/>
<path d="M1720 3261 c0 -25 4 -31 21 -31 16 0 20 5 17 27 -2 17 -10 29 -20 31
-14 3 -18 -3 -18 -27z"/>
<path d="M2080 3305 c0 -8 9 -15 20 -15 11 0 20 7 20 15 0 8 -9 15 -20 15 -11
0 -20 -7 -20 -15z"/>
<path d="M2080 3250 c0 -16 5 -21 23 -18 12 2 22 10 22 18 0 8 -10 16 -22 18
-18 3 -23 -2 -23 -18z"/>
<path d="M1215 3271 c-8 -27 1 -41 26 -41 16 0 20 6 17 27 -4 34 -33 43 -43
14z"/>
<path d="M527 3284 c-4 -4 -7 -18 -7 -31 0 -20 5 -24 23 -21 16 2 22 10 22 28
0 24 -23 39 -38 24z"/>
<path d="M2900 3361 c22 -4 39 -14 46 -29 18 -36 20 -3015 2 -3030 -7 -6 -29
-12 -48 -15 -27 -3 -23 -4 18 -5 l52 -2 0 1525 c0 1512 0 1525 -20 1545 -13
13 -32 20 -52 19 l-33 -2 35 -6z"/>
<path d="M660 2990 c0 -6 -14 -19 -31 -29 -40 -25 -165 -19 -225 11 -52 25
-91 21 -118 -15 -18 -24 -19 -31 -7 -63 9 -26 10 -38 1 -49 -8 -10 -8 -19 2
-34 15 -25 42 -29 99 -18 25 5 44 -4 100 -45 14 -9 22 -7 48 14 28 24 38 26
121 26 54 0 96 5 105 12 10 8 18 8 34 -2 17 -11 25 -10 47 3 25 15 29 15 59
-2 19 -11 41 -16 56 -13 13 3 31 5 39 5 70 -6 185 1 196 10 17 14 19 55 3 64
-7 5 -5 13 5 24 14 15 14 19 0 39 -12 17 -25 22 -60 22 -28 0 -59 8 -82 22
-37 21 -39 21 -66 3 -15 -10 -38 -19 -49 -20 -12 -1 -26 -3 -32 -5 -5 -1 -46
-2 -91 -1 -62 1 -85 5 -100 19 -24 23 -54 35 -54 22z m370 -95 c0 -69 -3 -85
-15 -85 -12 0 -15 15 -15 78 0 43 3 82 7 85 18 18 23 0 23 -78z m-640 50 c-3
-5 -16 -10 -30 -10 -14 0 -25 -6 -25 -13 0 -7 11 -18 25 -25 29 -15 38 -58 16
-76 -20 -17 -81 -10 -81 9 0 11 9 14 38 12 46 -4 47 10 2 37 -34 20 -47 56
-28 75 11 11 89 2 83 -9z m120 -102 c0 -67 -3 -83 -15 -83 -10 0 -15 10 -15
29 0 24 -3 28 -20 24 -30 -8 -50 15 -50 56 0 47 14 60 61 58 l39 -1 0 -83z
m51 38 c-2 -40 -1 -42 21 -39 19 2 23 10 26 46 2 28 8 42 18 42 10 0 14 -14
14 -58 l0 -58 -45 -2 c-35 -1 -47 3 -55 18 -11 21 -14 83 -3 94 16 16 27 -4
24 -43z m129 -11 c0 -47 -3 -60 -15 -60 -12 0 -15 13 -15 60 0 47 3 60 15 60
12 0 15 -13 15 -60z m50 48 c0 -9 3 -9 12 0 7 7 18 12 25 12 21 0 15 -24 -9
-35 -19 -8 -22 -17 -20 -48 3 -32 0 -38 -14 -35 -13 2 -17 14 -16 56 1 65 0
62 12 62 6 0 10 -5 10 -12z m130 -3 c0 -7 -9 -15 -20 -18 -16 -4 -20 -14 -20
-46 0 -30 -4 -41 -15 -41 -12 0 -15 13 -15 58 l0 58 35 1 c22 1 35 -4 35 -12z
m91 5 c11 -6 19 -21 19 -35 0 -22 -4 -25 -36 -25 -21 0 -33 -4 -29 -10 3 -5
20 -10 36 -10 41 0 33 -24 -8 -28 -54 -5 -82 59 -43 98 23 23 33 24 61 10z
m166 -7 c3 -6 -8 -13 -24 -15 l-28 -4 27 -13 c34 -17 41 -36 22 -56 -21 -21
-74 -20 -74 1 0 12 6 15 24 10 34 -8 43 12 11 24 -31 12 -42 35 -24 56 14 17
60 15 66 -3z m58 -3 c0 -8 -8 -16 -17 -18 -13 -2 -18 3 -18 18 0 15 5 20 18
18 9 -2 17 -10 17 -18z m-2 -66 c9 -10 -4 -34 -19 -34 -8 0 -14 9 -14 20 0 19
19 27 33 14z"/>
<path d="M436 2885 c-8 -23 4 -45 25 -45 14 0 19 7 19 30 0 23 -5 30 -19 30
-10 0 -21 -7 -25 -15z"/>
<path d="M2036 2713 c-2 -2 -147 -4 -322 -5 -176 0 -368 -3 -429 -8 -64 -4
197 -8 625 -9 718 -1 736 -2 768 -21 65 -40 62 22 61 -1195 0 -728 -3 -1115
-10 -1133 -6 -15 -20 -37 -31 -50 l-21 -22 -456 -2 c-337 -1 -425 -3 -336 -9
167 -11 709 -8 770 4 28 6 86 13 130 17 l80 7 -63 1 c-69 2 -64 -5 -47 77 4
16 6 149 5 295 -3 340 -3 681 -1 1150 1 206 0 468 -2 581 -4 226 -9 247 -70
293 -27 20 -42 21 -280 23 -139 1 -278 4 -310 6 -31 2 -59 2 -61 0z"/>
<path d="M585 2699 c-16 -4 42 -7 129 -8 88 0 156 2 152 6 -8 9 -241 10 -281
2z"/>
<path d="M1306 2514 c-15 -31 -25 -58 -23 -60 6 -6 47 64 47 80 0 6 5 17 12
24 7 7 8 12 2 12 -6 0 -23 -25 -38 -56z"/>
<path d="M1381 2530 c-1 -51 12 -83 23 -55 3 9 3 22 -1 28 -3 5 -10 24 -14 41
-6 28 -7 27 -8 -14z"/>
<path d="M1764 2513 c-24 -5 -89 -61 -80 -70 3 -3 17 6 30 20 14 15 31 27 39
27 8 0 28 7 43 15 30 15 18 18 -32 8z"/>
<path d="M1715 2384 c-13 -41 -14 -59 -6 -67 20 -20 12 -69 -16 -99 -26 -27
-26 -28 -8 -48 27 -30 35 -25 30 19 -4 41 21 81 49 81 17 0 38 25 29 33 -3 4
-17 0 -31 -9 -29 -19 -32 -17 -38 33 -3 31 0 44 16 58 23 21 27 55 6 55 -7 0
-21 -24 -31 -56z"/>
<path d="M1660 2380 c-11 -7 -15 -31 -15 -101 -1 -103 12 -89 19 21 2 37 7 73
10 79 9 13 6 14 -14 1z"/>
<path d="M1510 2272 c-18 -11 -36 -24 -38 -30 -5 -15 14 -16 23 -2 3 6 15 10
26 10 10 0 19 4 19 9 0 5 8 8 18 6 9 -1 11 0 4 2 -7 3 -10 9 -7 14 9 14 -7 11
-45 -9z"/>
<path d="M2033 2226 c-79 -14 -95 -30 -23 -22 183 19 209 19 235 2 14 -10 31
-16 37 -14 6 2 -1 12 -16 22 -33 21 -144 27 -233 12z"/>
<path d="M2616 2222 c-3 -5 -25 -7 -49 -7 -36 2 -44 -1 -40 -13 5 -11 17 -13
52 -8 96 13 121 18 115 27 -7 11 -71 12 -78 1z"/>
<path d="M2315 2211 c-16 -7 -13 -9 18 -13 23 -2 36 0 34 6 -5 14 -27 17 -52
7z"/>
<path d="M2480 2210 c-8 -5 -33 -7 -54 -3 -29 5 -37 3 -32 -6 12 -19 116 -10
116 10 0 12 -11 11 -30 -1z"/>
<path d="M1503 2203 c-21 -8 -14 -25 7 -18 15 5 20 2 20 -13 0 -15 -6 -18 -28
-14 -28 4 -47 -9 -54 -37 -2 -10 10 -15 44 -17 51 -3 75 13 64 43 -4 9 -2 19
4 23 8 5 6 12 -5 24 -17 16 -30 19 -52 9z"/>
<path d="M1940 2163 c0 -42 -13 -57 -37 -44 -20 10 -21 7 -22 -76 -1 -48 1
-84 5 -80 4 4 7 21 6 38 -1 24 2 29 11 20 6 -6 17 -11 24 -11 10 0 11 5 3 19
-14 27 -13 52 5 65 18 14 32 96 16 96 -6 0 -11 -12 -11 -27z"/>
<path d="M1807 2166 c-3 -8 2 -16 13 -19 23 -6 30 0 23 19 -7 18 -29 18 -36 0z"/>
<path d="M1750 2150 c-13 -8 -12 -11 5 -24 28 -21 37 -20 33 6 -4 25 -17 32
-38 18z"/>
<path d="M2517 2113 c6 -64 10 -73 28 -73 13 0 15 7 10 33 -9 44 -26 87 -35
87 -4 0 -5 -21 -3 -47z"/>
<path d="M991 2132 c-24 -12 -38 -29 -50 -62 -31 -82 -46 -110 -56 -107 -5 2
-10 8 -10 13 -1 15 -45 80 -45 66 0 -7 6 -23 14 -35 15 -24 35 -110 37 -160 1
-18 3 -24 6 -14 2 9 8 17 11 17 4 0 8 12 8 28 1 15 18 75 39 135 l37 107 46 1
c26 0 63 7 82 14 l35 13 -60 1 c-37 0 -73 -6 -94 -17z"/>
<path d="M1228 2120 c5 -33 16 -39 26 -14 3 8 0 22 -8 30 -21 20 -23 18 -18
-16z"/>
<path d="M1150 2110 c0 -5 -6 -10 -14 -10 -7 0 -18 -12 -23 -27 -22 -61 -33
-101 -36 -129 -2 -16 -11 -43 -20 -61 -23 -44 -23 -96 0 -91 10 2 19 12 22 23
2 11 6 22 10 25 8 6 33 121 36 170 2 20 12 53 24 73 11 20 16 37 11 37 -6 0
-10 -4 -10 -10z"/>
<path d="M2367 2096 c3 -13 0 -27 -6 -30 -16 -10 -13 -26 4 -26 11 0 15 11 15
40 0 22 -4 40 -9 40 -4 0 -6 -11 -4 -24z"/>
<path d="M1584 2085 c-10 -8 -37 -15 -59 -15 -33 -1 -37 -2 -22 -11 11 -6 26
-12 35 -14 24 -4 72 23 72 40 0 19 -2 19 -26 0z"/>
<path d="M493 2072 c-24 -2 -43 -7 -43 -11 0 -9 367 -7 376 2 14 14 -187 20
-333 9z"/>
<path d="M345 2052 c-15 -4 -10 -8 20 -16 37 -11 40 -15 43 -49 5 -53 22 -35
21 21 0 26 -3 41 -6 34 -3 -8 -9 -9 -16 -4 -18 14 -40 19 -62 14z"/>
<path d="M1315 2040 c3 -6 -1 -7 -9 -4 -9 3 -16 1 -16 -5 0 -10 7 -12 52 -15
9 -1 25 -12 37 -25 16 -19 18 -27 10 -43 -9 -16 -8 -19 3 -16 17 6 41 55 32
69 -3 6 -15 8 -26 6 -14 -4 -18 -2 -14 9 4 10 -2 14 -19 14 -14 0 -25 5 -25
10 0 6 -7 10 -16 10 -8 0 -12 -4 -9 -10z"/>
<path d="M1586 2023 c-3 -10 -2 -31 3 -48 5 -16 10 -23 10 -14 1 9 4 31 7 48
7 33 -10 45 -20 14z"/>
<path d="M746 2002 c-4 -18 -5 -36 -2 -39 11 -12 17 5 14 39 l-3 33 -9 -33z"/>
<path d="M641 1895 c0 -93 3 -124 11 -112 12 23 11 203 -2 226 -6 11 -9 -26
-9 -114z"/>
<path d="M2335 2010 c-3 -5 -7 -108 -8 -227 -2 -120 -5 -222 -7 -228 -3 -5 -1
-12 4 -15 12 -6 15 16 21 175 2 72 7 148 10 170 2 22 1 57 -4 77 -6 24 -5 40
2 47 8 8 8 11 0 11 -7 0 -15 -4 -18 -10z"/>
<path d="M1930 1985 c0 -8 6 -15 14 -15 7 0 16 -13 19 -30 6 -26 9 -29 35 -24
24 5 30 2 35 -15 4 -15 10 -19 22 -14 16 5 15 8 -6 24 -14 9 -42 33 -62 53
-41 39 -57 45 -57 21z"/>
<path d="M713 1925 c0 -38 2 -53 4 -32 2 20 2 52 0 70 -2 17 -4 1 -4 -38z"/>
<path d="M1249 1959 c-9 -17 -17 -20 -46 -16 -37 6 -42 -7 -10 -27 22 -14 67
10 78 42 11 28 -6 29 -22 1z"/>
<path d="M1435 1970 c3 -5 22 -10 42 -10 45 0 38 9 -11 15 -23 3 -35 1 -31 -5z"/>
<path d="M1773 1964 c0 -16 25 -18 47 -4 8 5 13 10 10 11 -45 7 -57 6 -57 -7z"/>
<path d="M566 1954 c-9 -22 -7 -52 2 -38 4 6 12 13 19 15 9 3 8 9 -2 22 -11
16 -13 16 -19 1z"/>
<path d="M1658 1939 c-10 -11 -18 -27 -17 -36 0 -14 2 -15 6 -3 10 24 36 39
67 40 35 0 32 5 -9 12 -21 4 -35 0 -47 -13z"/>
<path d="M411 1908 c-1 -15 8 -42 20 -60 17 -28 19 -29 13 -8 -4 14 -13 41
-20 60 -12 33 -13 34 -13 8z"/>
<path d="M1235 1865 c18 -14 43 -24 62 -25 17 0 35 -4 38 -10 8 -13 75 -13 75
-1 0 6 -21 13 -47 17 -27 5 -51 9 -55 10 -5 1 -19 2 -33 3 -15 1 -25 7 -25 16
0 9 -9 15 -22 15 -22 0 -21 -1 7 -25z"/>
<path d="M1830 1855 c0 -9 -9 -19 -19 -22 -11 -3 -22 -12 -26 -21 -5 -14 -7
-14 -16 -2 -7 11 -8 7 -3 -12 5 -25 3 -28 -19 -28 -24 0 -45 -16 -34 -26 9
-10 59 17 64 35 2 10 20 24 38 31 19 7 32 17 29 22 -3 4 2 8 11 8 21 0 14 24
-8 28 -11 2 -17 -3 -17 -13z"/>
<path d="M955 1850 c3 -5 11 -10 17 -10 6 0 17 -8 24 -17 12 -17 13 -17 14 3
0 14 -8 24 -22 28 -33 8 -40 7 -33 -4z"/>
<path d="M472 1785 c1 -25 5 -45 10 -45 11 0 10 77 -1 84 -5 4 -9 -14 -9 -39z"/>
<path d="M1410 1794 c-14 -7 -35 -14 -47 -14 -13 0 -23 -4 -23 -10 0 -17 41
-11 76 11 49 30 44 41 -6 13z"/>
<path d="M1938 1783 c-10 -2 -18 -8 -18 -13 0 -4 8 -6 19 -3 13 3 20 -2 24
-17 4 -15 10 -19 18 -14 10 6 10 9 1 12 -7 2 -12 12 -12 23 0 19 -2 20 -32 12z"/>
<path d="M1036 1773 c-3 -3 -6 -28 -6 -55 0 -42 -3 -48 -21 -48 -12 0 -17 -4
-14 -11 4 -6 13 -8 20 -5 11 4 13 -31 11 -195 -2 -112 0 -199 5 -199 5 0 9 26
10 58 2 213 8 393 13 419 7 29 -4 50 -18 36z"/>
<path d="M2210 1756 c0 -13 24 -56 32 -56 16 0 8 35 -12 48 -11 7 -20 10 -20
8z"/>
<path d="M1492 1723 c-10 -4 -8 -8 5 -18 12 -9 22 -10 29 -4 8 6 17 4 28 -6
15 -15 17 -15 22 0 4 9 5 17 3 19 -8 7 -75 13 -87 9z"/>
<path d="M874 1705 c-14 -11 -15 -14 -2 -9 19 6 34 -28 21 -48 -9 -15 -12
-168 -2 -168 10 0 18 93 9 110 -5 9 -5 23 1 31 11 17 12 99 1 99 -5 0 -17 -7
-28 -15z"/>
<path d="M1590 1688 c0 -27 14 -29 26 -3 10 20 9 23 -7 22 -11 -1 -19 -9 -19
-19z"/>
<path d="M1910 1703 c0 -18 30 -44 42 -37 6 4 14 0 19 -7 4 -7 11 -10 15 -6
11 11 -16 36 -33 30 -9 -4 -21 1 -29 12 -8 10 -14 14 -14 8z"/>
<path d="M1416 1693 c-4 -5 -20 -9 -34 -9 -51 -3 -112 -17 -121 -28 -7 -8 12
-11 67 -9 100 2 100 2 82 14 -11 7 -4 8 25 3 22 -4 38 -5 35 -3 -3 2 -14 12
-26 22 -11 9 -24 14 -28 10z"/>
<path d="M1706 1652 c-3 -3 3 -10 13 -16 10 -6 28 -17 40 -24 11 -7 21 -9 21
-5 -1 11 -67 52 -74 45z"/>
<path d="M543 1585 c0 -33 2 -45 4 -27 2 18 2 45 0 60 -2 15 -4 0 -4 -33z"/>
<path d="M1670 1601 c0 -5 7 -14 15 -21 14 -11 14 -15 0 -36 -9 -13 -12 -24
-7 -24 17 0 41 55 31 73 -10 18 -39 24 -39 8z"/>
<path d="M1783 1584 c-13 -13 -19 -26 -14 -29 5 -3 11 1 14 7 3 10 11 10 35 1
38 -13 41 -5 10 24 l-23 21 -22 -24z"/>
<path d="M578 1572 c-5 -33 0 -52 13 -52 4 0 6 14 3 30 -4 19 -2 30 5 30 6 0
11 5 11 10 0 24 -28 7 -32 -18z"/>
<path d="M1220 1552 c0 -12 34 -42 48 -42 7 0 12 -4 12 -10 0 -14 47 -58 70
-65 11 -3 20 -11 20 -16 0 -5 9 -9 20 -9 11 0 20 6 20 14 0 9 -7 12 -20 9 -11
-3 -20 0 -20 6 0 6 -11 16 -25 21 -14 5 -25 15 -25 22 0 7 -18 24 -40 38 -22
13 -40 28 -40 32 0 4 -4 8 -10 8 -5 0 -10 -4 -10 -8z"/>
<path d="M2044 1505 c-10 -20 -9 -27 4 -37 13 -11 15 -10 10 9 -4 14 -1 24 8
27 17 7 18 26 2 26 -7 0 -18 -11 -24 -25z"/>
<path d="M390 1357 c0 -76 4 -128 10 -132 8 -5 9 34 4 122 -3 70 -8 130 -10
132 -2 2 -4 -52 -4 -122z"/>
<path d="M478 1380 c-2 -45 0 -84 4 -86 9 -6 15 149 7 160 -4 4 -9 -29 -11
-74z"/>
<path d="M2345 1430 c2 -19 8 -57 13 -85 5 -27 9 -64 8 -82 -2 -18 1 -38 6
-45 5 -8 7 28 5 89 -2 56 -9 108 -14 115 -6 7 -13 20 -16 28 -3 8 -4 -1 -2
-20z"/>
<path d="M2290 1435 c-1 -5 -2 -13 -1 -17 1 -11 -7 -10 -29 2 -16 8 -18 7 -14
-4 13 -33 60 -24 51 10 -3 11 -6 15 -7 9z"/>
<path d="M1930 1402 c0 -7 -4 -11 -9 -7 -5 3 -12 1 -16 -5 -4 -6 -11 -8 -16
-5 -5 4 -9 1 -9 -4 0 -13 2 -13 34 -1 19 7 26 6 26 -2 0 -6 3 -9 6 -5 3 3 1
14 -5 24 -6 11 -11 13 -11 5z"/>
<path d="M1993 1373 c3 -22 10 -29 30 -31 15 -2 27 1 27 7 0 6 -9 11 -19 11
-11 0 -23 5 -26 10 -3 6 -1 10 4 10 6 0 11 5 11 10 0 6 -7 10 -15 10 -11 0
-15 -8 -12 -27z"/>
<path d="M1270 1378 c-19 -6 -52 -10 -72 -10 -21 0 -38 -2 -38 -5 0 -7 64 -28
75 -24 6 2 19 5 30 6 28 3 85 28 85 37 0 11 -37 8 -80 -4z"/>
<path d="M2560 1338 c-7 -29 -15 -60 -17 -68 -2 -8 3 -3 11 11 15 26 33 109
24 109 -2 0 -10 -24 -18 -52z"/>
<path d="M1060 1348 l0 -31 25 23 c14 13 22 26 19 29 -4 3 -9 0 -11 -6 -3 -7
-9 -13 -14 -13 -4 0 -6 7 -3 15 4 8 1 15 -5 15 -6 0 -11 -14 -11 -32z"/>
<path d="M874 1338 c3 -13 6 -26 6 -30 0 -5 3 -8 8 -8 14 0 10 49 -5 55 -12 4
-14 0 -9 -17z"/>
<path d="M1877 1332 c-19 -21 -22 -32 -7 -32 6 0 10 7 10 15 0 8 6 12 15 9 21
-8 41 6 24 17 -20 12 -24 11 -42 -9z"/>
<path d="M2280 1290 c0 -5 5 -10 10 -10 6 0 10 -6 10 -14 0 -17 18 -31 27 -22
3 3 0 12 -7 21 -7 8 -9 15 -4 15 11 0 -18 20 -28 20 -5 0 -8 -4 -8 -10z"/>
<path d="M1065 1280 c-3 -5 -2 -15 1 -24 3 -9 1 -16 -5 -16 -6 0 -11 -6 -11
-14 0 -25 38 -6 49 24 8 24 6 29 -10 33 -10 3 -21 1 -24 -3z"/>
<path d="M883 1218 c-1 -33 -4 -71 -7 -84 -4 -16 -2 -24 7 -24 9 0 12 -9 9
-30 -2 -17 -10 -30 -18 -30 -8 0 -14 -10 -14 -22 1 -21 2 -21 11 -5 6 9 14 15
18 12 11 -6 24 73 15 87 -4 6 -6 41 -5 79 1 37 -1 69 -6 72 -4 3 -9 -22 -10
-55z"/>
<path d="M1942 1268 c2 -6 14 -13 27 -15 14 -2 21 1 19 9 -2 6 -14 13 -27 15
-14 2 -21 -1 -19 -9z"/>
<path d="M2200 1265 c14 -17 9 -18 -43 -6 -28 7 -37 6 -34 -2 2 -7 13 -12 24
-13 25 -1 45 -13 39 -23 -3 -4 1 -8 9 -8 8 0 13 5 12 10 -1 6 9 16 23 23 21
11 22 14 7 18 -52 17 -51 17 -37 1z"/>
<path d="M479 1263 c-8 -24 2 -444 10 -438 5 3 7 14 4 25 -3 13 0 20 8 20 11
0 11 2 0 9 -13 8 -13 12 -1 26 10 12 11 18 2 24 -14 8 -12 91 3 91 6 0 7 3 0
8 -14 10 -19 72 -6 72 7 0 7 7 -1 20 -10 16 -10 22 -1 28 8 5 8 22 -1 67 -7
33 -14 54 -17 48z"/>
<path d="M394 1188 c3 -13 6 -53 6 -90 0 -38 4 -68 9 -68 4 0 7 19 6 43 -1 23
-3 63 -4 90 0 27 -6 47 -12 47 -7 0 -9 -9 -5 -22z"/>
<path d="M1786 1194 c-9 -8 -14 -20 -11 -25 9 -13 11 -12 29 16 18 28 6 34
-18 9z"/>
<path d="M1055 1177 c-8 -29 -12 -97 -5 -97 12 0 27 22 34 52 3 14 8 32 11 40
4 9 -2 14 -15 15 -12 1 -23 -4 -25 -10z"/>
<path d="M2010 1177 c0 -2 11 -13 25 -25 l25 -22 -4 23 c-2 13 -11 23 -24 25
-12 2 -22 2 -22 -1z"/>
<path d="M1810 1149 c-14 -12 -20 -18 -13 -15 6 3 13 0 16 -6 7 -19 30 5 25
25 -2 14 -7 13 -28 -4z"/>
<path d="M2246 1162 c5 -4 18 -18 28 -32 12 -16 16 -18 12 -7 -3 10 -6 25 -6
33 0 8 -10 14 -22 14 -13 0 -18 -4 -12 -8z"/>
<path d="M2080 1102 c-8 -4 -16 -15 -18 -26 -3 -17 -2 -17 18 -3 18 13 26 13
47 2 14 -7 32 -11 39 -8 8 3 14 0 14 -7 0 -6 5 -8 10 -5 23 14 3 30 -50 40 -8
1 -22 5 -30 8 -8 3 -22 3 -30 -1z"/>
<path d="M1010 1050 c0 -43 6 -48 36 -25 18 14 18 14 -5 15 -19 0 -23 4 -19
25 3 14 1 25 -3 25 -5 0 -9 -18 -9 -40z"/>
<path d="M2010 1055 c0 -15 -3 -16 -12 -7 -7 7 -19 12 -27 11 -11 0 -12 -2 -3
-6 6 -2 12 -10 12 -16 0 -7 11 -12 24 -12 18 0 23 5 20 19 -5 26 -14 33 -14
11z"/>
<path d="M2343 1037 c3 -20 1 -37 -4 -39 -12 -4 -30 -78 -19 -78 9 0 37 80 42
119 2 14 -3 26 -11 29 -11 4 -13 -3 -8 -31z"/>
<path d="M1945 1031 c-4 -7 0 -20 9 -30 9 -10 13 -21 9 -24 -3 -4 -1 -7 5 -7
15 0 15 1 -2 40 -8 21 -16 28 -21 21z"/>
<path d="M2052 1021 c7 -11 16 -17 20 -15 4 3 8 -2 8 -10 0 -8 5 -18 11 -22
17 -10 0 39 -19 54 -24 18 -34 15 -20 -7z"/>
<path d="M1853 1013 c0 -8 6 -12 14 -9 7 3 13 1 13 -4 0 -18 25 -10 39 13 14
22 14 22 -8 3 -11 -11 -21 -14 -21 -9 0 6 -8 13 -18 15 -12 3 -19 0 -19 -9z"/>
<path d="M872 1000 c-16 -26 -15 -30 3 -30 8 0 15 4 15 9 0 5 3 16 6 25 9 23
-9 20 -24 -4z"/>
<path d="M2535 982 c-9 -21 -10 -101 -1 -109 12 -12 19 7 24 61 4 53 -9 82
-23 48z"/>
<path d="M1047 983 c-2 -5 -5 -25 -6 -47 -1 -21 -2 -41 -3 -45 0 -3 0 -18 1
-33 1 -20 5 -26 16 -22 10 4 12 11 6 23 -5 9 -8 42 -5 74 3 53 1 68 -9 50z"/>
<path d="M1570 976 c0 -8 -7 -17 -16 -20 -10 -4 -14 -12 -10 -22 3 -8 0 -27
-8 -42 -8 -15 -16 -46 -20 -70 -3 -24 -9 -48 -12 -54 -4 -6 -3 -8 3 -5 6 4 16
28 23 54 6 27 22 70 36 96 26 52 30 77 14 77 -5 0 -10 -6 -10 -14z"/>
<path d="M2115 977 c-5 -11 -1 -25 10 -37 10 -11 14 -20 9 -21 -5 0 1 -4 14
-9 15 -6 22 -18 23 -37 1 -17 3 -21 6 -10 2 9 12 17 21 18 14 0 13 2 -3 9 -26
11 -56 47 -65 79 -7 23 -9 24 -15 8z"/>
<path d="M1008 937 c-2 -18 -1 -44 3 -58 5 -16 7 -5 8 34 1 63 -5 76 -11 24z"/>
<path d="M860 920 c0 -23 5 -40 11 -40 8 0 7 -5 -1 -15 -15 -18 -7 -30 13 -22
14 5 16 34 4 54 -4 6 -1 14 5 16 8 3 6 6 -4 6 -10 1 -18 8 -18 17 0 8 5 12 10
9 6 -3 10 -1 10 4 0 6 -7 11 -15 11 -11 0 -15 -11 -15 -40z"/>
<path d="M2609 826 c-4 -48 -3 -51 20 -37 12 8 12 12 2 25 -7 8 -10 19 -8 24
3 4 2 14 -3 21 -5 9 -9 -3 -11 -33z"/>
<path d="M2520 853 c0 -4 4 -14 8 -21 10 -15 45 -5 39 12 -4 13 -47 21 -47 9z"/>
<path d="M861 696 c-1 -72 -4 -145 -7 -162 -3 -18 -1 -35 5 -38 8 -5 8 -13 0
-28 -8 -15 -8 -19 0 -14 14 9 14 -3 0 -43 -13 -38 -6 -50 16 -28 11 12 15 33
14 79 -1 35 1 72 4 83 4 11 3 69 -1 128 -4 60 -4 110 -1 113 12 7 -2 41 -16
41 -10 0 -13 -30 -14 -131z"/>
<path d="M1953 800 c10 -25 9 -33 -3 -41 -13 -9 -13 -10 0 -7 8 3 17 15 20 28
7 30 23 35 43 15 10 -9 18 -11 22 -5 6 10 -32 30 -72 37 -20 3 -21 2 -10 -27z"/>
<path d="M478 763 c-8 -98 -9 -488 -1 -480 7 8 16 527 8 527 -1 0 -5 -21 -7
-47z"/>
<path d="M1047 788 c6 -7 9 -31 8 -53 -2 -46 3 -67 16 -60 4 3 6 12 2 20 -3 8
0 15 6 15 6 0 11 9 11 21 0 11 5 30 11 41 10 19 9 20 -15 14 -15 -4 -26 -2
-26 4 0 5 -5 10 -11 10 -8 0 -8 -4 -2 -12z"/>
<path d="M2595 750 c-7 -11 2 -30 14 -30 5 0 11 9 14 20 5 21 -16 29 -28 10z"/>
<path d="M998 674 c-1 -38 -3 -89 -4 -113 -1 -30 1 -40 7 -29 10 18 14 196 5
205 -3 4 -7 -25 -8 -63z"/>
<path d="M2612 674 c-12 -8 -22 -25 -21 -37 l0 -22 9 22 c5 12 21 25 35 29 14
3 25 10 25 15 0 14 -23 11 -48 -7z"/>
<path d="M680 633 c0 -16 6 -23 20 -23 11 0 20 7 20 16 0 8 -5 12 -11 8 -6 -3
-15 0 -20 7 -6 10 -9 8 -9 -8z"/>
<path d="M2440 599 c0 -5 8 -12 18 -16 9 -3 25 -13 35 -21 14 -13 17 -13 17
-1 -1 23 -23 45 -47 46 -13 1 -23 -3 -23 -8z"/>
<path d="M2615 560 c-11 -17 5 -30 37 -30 l31 0 -26 20 c-29 23 -33 24 -42 10z"/>
<path d="M997 503 c-2 -5 -3 -34 -2 -66 1 -32 -2 -60 -7 -63 -14 -9 -9 -24 7
-18 12 5 15 22 14 80 -1 72 -3 82 -12 67z"/>
<path d="M1128 491 c-9 -9 -22 -38 -28 -64 -7 -27 -18 -47 -26 -47 -8 0 -11
-6 -8 -15 4 -8 10 -15 15 -15 14 0 41 61 36 81 -3 12 2 24 15 33 11 8 18 21
16 29 -2 12 -6 11 -20 -2z"/>
<path d="M2460 506 c0 -3 13 -14 30 -26 23 -16 37 -20 66 -14 30 5 34 8 20 16
-10 6 -20 7 -23 4 -3 -3 -18 1 -34 9 -27 14 -59 20 -59 11z"/>
<path d="M1331 492 c-1 -9 -8 -11 -21 -7 -39 12 -44 -8 -5 -22 45 -15 52 -12
37 19 -6 13 -11 17 -11 10z"/>
<path d="M2227 460 c10 -11 26 -20 37 -20 16 0 16 3 -7 20 -14 11 -30 20 -36
20 -6 0 -3 -9 6 -20z"/>
<path d="M1420 434 c0 -21 3 -25 18 -19 9 5 32 10 50 13 17 2 32 8 32 12 0 12
-45 21 -48 10 -5 -13 -32 -13 -32 0 0 6 -4 10 -10 10 -5 0 -10 -12 -10 -26z"/>
<path d="M743 371 c1 -50 21 -80 23 -35 1 13 -3 24 -10 24 -7 0 -6 4 2 9 16
10 13 42 -4 48 -8 3 -11 -13 -11 -46z"/>
<path d="M800 350 c0 -38 4 -70 10 -70 5 0 7 7 4 15 -4 8 -2 15 4 15 7 0 7 12
0 36 -5 20 -7 45 -5 55 3 11 1 19 -4 19 -5 0 -9 -31 -9 -70z"/>
<path d="M2150 356 c0 -17 5 -26 16 -26 10 0 14 7 12 22 -5 32 -28 35 -28 4z"/>
<path d="M1140 352 c0 -10 -11 -25 -25 -32 -14 -8 -24 -18 -22 -24 5 -14 37
-20 47 -9 13 14 22 83 10 83 -5 0 -10 -8 -10 -18z"/>
<path d="M2513 363 c-18 -3 -33 -9 -33 -14 0 -5 12 -7 28 -4 36 6 76 6 140 -1
41 -5 51 -3 47 8 -5 13 -109 19 -182 11z"/>
<path d="M2060 349 c12 -8 10 -10 -10 -8 -44 2 -60 -1 -60 -11 0 -7 24 -9 68
-6 37 3 68 5 69 5 1 1 0 8 -3 16 -5 13 -9 13 -22 3 -12 -10 -16 -10 -19 0 -3
6 -12 12 -21 12 -15 0 -15 -2 -2 -11z"/>
<path d="M2360 350 c0 -5 11 -10 24 -10 14 0 28 5 31 10 4 6 -7 10 -24 10 -17
0 -31 -4 -31 -10z"/>
<path d="M1301 312 c-15 -29 -14 -45 4 -38 8 3 30 -1 49 -9 39 -17 226 -20
261 -5 12 5 -34 9 -122 9 l-143 1 0 26 c0 16 -4 23 -11 18 -6 -3 -15 -1 -19 6
-6 9 -11 7 -19 -8z"/>
<path d="M1190 270 c-34 -4 -39 -6 -20 -10 23 -5 122 4 110 9 -11 6 -48 6 -90
1z"/>
<path d="M898 259 c22 -7 43 -7 60 0 23 8 17 9 -33 9 -55 0 -57 -1 -27 -9z"/>
<path d="M153 220 c-17 -10 -37 -28 -42 -39 -44 -82 59 -166 144 -118 11 7 27
12 35 12 8 0 16 9 18 21 3 19 9 20 90 17 48 -1 101 -3 119 -3 25 0 31 -4 27
-15 -5 -12 -27 -15 -111 -14 -93 0 -104 2 -99 17 5 13 3 13 -9 -2 -8 -10 -12
-22 -10 -27 3 -4 49 -8 102 -8 108 -1 157 13 149 42 -2 9 0 17 6 17 6 0 8 -13
6 -28 -3 -23 0 -28 19 -30 13 -1 23 3 23 8 0 6 -7 10 -15 10 -8 0 -15 5 -15
11 0 14 43 0 53 -18 11 -18 122 -16 138 3 12 15 34 19 25 5 -3 -4 3 -16 14
-26 37 -34 89 3 81 58 -2 16 12 17 176 19 98 0 185 0 193 0 8 -1 105 -2 215
-3 110 -1 210 -5 222 -10 15 -5 26 -3 37 10 24 26 20 58 -11 78 -25 16 -62 18
-408 20 -209 1 -391 3 -405 4 -43 3 -99 -5 -94 -13 3 -4 -14 -5 -38 -2 -24 3
-137 7 -253 9 -177 3 -213 1 -227 -12 -15 -14 -20 -13 -47 6 -36 26 -67 27
-108 1z m76 -15 c49 -25 56 -82 15 -114 -34 -26 -54 -26 -88 0 -34 27 -35 71
-1 104 28 29 36 30 74 10z m121 -17 c7 -19 9 -20 9 -5 1 29 36 17 38 -13 1
-16 0 -18 -4 -7 -5 18 -5 18 -18 0 -11 -14 -16 -15 -26 -6 -9 9 -16 10 -26 2
-14 -12 -16 -6 -7 29 4 12 10 22 15 22 6 0 14 -10 19 -22z m190 -8 c0 -25 -4
-30 -25 -30 -20 0 -25 5 -25 25 0 31 17 33 31 3 9 -21 9 -21 4 5 -3 15 -1 27
5 27 5 0 10 -13 10 -30z m80 14 c0 -9 5 -12 12 -8 22 14 48 11 48 -5 1 -13 2
-13 11 2 9 15 13 16 27 5 12 -10 14 -10 8 0 -4 6 -2 12 3 12 6 0 11 -11 11
-25 0 -16 -6 -25 -15 -25 -8 0 -15 8 -15 17 0 15 -1 15 -13 -1 -13 -18 -14
-18 -21 -1 -6 17 -7 17 -21 -1 -13 -16 -16 -17 -25 -4 -6 10 -10 11 -10 3 0
-7 -4 -13 -10 -13 -5 0 -10 14 -10 30 0 17 5 30 10 30 6 0 10 -7 10 -16z m241
-1 c1 -17 2 -17 6 0 2 9 9 17 14 17 5 0 10 -8 10 -17 1 -17 2 -17 6 0 8 31 33
20 32 -15 -1 -31 -2 -31 -8 -8 l-7 25 -7 -25 c-6 -21 -9 -22 -17 -10 -9 13
-11 13 -19 0 -8 -11 -12 -9 -20 13 -13 35 -13 37 -1 37 6 0 11 -8 11 -17z
m433 0 c6 -14 8 -14 21 3 13 18 14 17 15 -16 0 -26 -3 -31 -10 -20 -5 8 -10
10 -10 5 0 -6 -9 -11 -20 -12 -16 -1 -20 4 -20 28 0 32 14 39 24 12z m345 -17
c-1 -30 -1 -30 -9 -6 -7 21 -8 22 -9 5 -1 -25 -51 -32 -51 -7 0 13 -3 12 -14
-4 -11 -15 -17 -16 -27 -7 -22 21 -3 42 36 39 19 -2 37 0 40 4 2 4 11 7 20 7
10 0 15 -10 14 -31z m-1162 -7 c1 -19 1 -20 -4 -4 -6 20 -6 20 -14 0 -8 -20
-8 -20 -9 0 -1 20 -1 20 -10 0 -8 -18 -9 -17 -9 7 -1 23 3 27 22 24 15 -2 23
-10 24 -27z m101 3 c2 -15 -2 -22 -12 -22 -11 0 -16 9 -16 26 0 31 23 28 28
-4z m248 -11 c-13 -21 -36 -12 -32 12 3 12 5 24 5 27 1 2 8 -3 17 -12 9 -9 13
-21 10 -27z m147 31 c3 10 7 10 17 1 19 -17 5 -40 -24 -40 -21 0 -26 4 -26 24
0 21 3 23 14 14 11 -9 15 -9 19 1z m87 -17 c0 -16 -6 -25 -15 -25 -9 0 -15 9
-15 25 0 16 6 25 15 25 9 0 15 -9 15 -25z m40 0 c0 -16 -6 -25 -15 -25 -9 0
-15 9 -15 25 0 16 6 25 15 25 9 0 15 -9 15 -25z m40 13 c0 -9 3 -9 8 -2 4 6
27 10 52 10 38 -1 45 -4 45 -21 0 -17 -8 -20 -47 -23 -34 -2 -48 1 -48 10 0 9
-3 9 -10 -2 -12 -19 -35 2 -27 24 8 19 27 21 27 4z m228 -16 c2 -15 -2 -22
-12 -22 -11 0 -16 9 -16 26 0 31 23 28 28 -4z m59 -3 c1 -19 1 -20 -4 -4 -6
20 -6 20 -14 0 -8 -20 -8 -20 -9 0 -1 20 -1 20 -10 0 -8 -18 -9 -17 -9 7 -1
23 3 27 22 24 15 -2 23 -10 24 -27z m38 6 c0 -10 -6 -20 -12 -22 -8 -3 -13 5
-13 22 0 17 5 25 13 23 6 -3 12 -13 12 -23z m41 10 c6 -15 -11 -45 -25 -45 -4
0 -6 13 -3 30 5 32 19 40 28 15z m181 4 c8 -8 13 -8 17 0 13 21 26 11 26 -19
0 -23 -5 -30 -19 -30 -11 0 -26 9 -35 21 -13 20 -14 20 -19 2 -3 -12 -5 -9 -6
10 -1 28 16 36 36 16z m-887 -77 c0 -13 -2 -14 -9 -3 -5 8 -11 9 -15 3 -3 -5
-19 -8 -36 -6 -16 2 -30 -1 -30 -6 0 -5 11 -7 24 -4 14 2 28 0 31 -6 4 -6 -16
-10 -54 -10 -38 0 -61 4 -61 11 0 6 8 8 18 5 14 -5 14 -4 -2 9 -18 14 -14 15
47 15 41 0 67 4 67 11 0 5 5 7 10 4 6 -3 10 -14 10 -23z m68 -1 c21 -13 10
-46 -16 -49 -27 -4 -40 22 -22 43 14 17 20 18 38 6z"/>
</g>
</svg>
